<svg width="32" height="32" viewBox="0 0 32 32" fill="none" xmlns="http://www.w3.org/2000/svg">
<path d="M7.33317 23.3334H5.33317V8.66671H15.7332L14.6665 9.72004C14.4154 9.96934 14.2737 10.3082 14.2724 10.662C14.2712 11.0158 14.4105 11.3556 14.6598 11.6067C14.9091 11.8578 15.248 11.9995 15.6018 12.0008C15.9556 12.002 16.2954 11.8627 16.5465 11.6134L19.8798 8.28004C20.0048 8.15609 20.104 8.00862 20.1717 7.84614C20.2394 7.68366 20.2742 7.50939 20.2742 7.33337C20.2742 7.15736 20.2394 6.98308 20.1717 6.8206C20.104 6.65813 20.0048 6.51066 19.8798 6.38671L16.5465 3.05337C16.2967 2.80504 15.9588 2.66565 15.6065 2.66565C15.2543 2.66565 14.9163 2.80504 14.6665 3.05337C14.5415 3.17732 14.4423 3.32479 14.3746 3.48727C14.307 3.64975 14.2721 3.82402 14.2721 4.00004C14.2721 4.17606 14.307 4.35033 14.3746 4.51281C14.4423 4.67529 14.5415 4.82276 14.6665 4.94671L15.7198 6.00004H3.99984C3.64622 6.00004 3.30708 6.14052 3.05703 6.39056C2.80698 6.64061 2.6665 6.97975 2.6665 7.33337V24.6667C2.6665 25.0203 2.80698 25.3595 3.05703 25.6095C3.30708 25.8596 3.64622 26 3.99984 26H7.33317C7.68679 26 8.02593 25.8596 8.27598 25.6095C8.52603 25.3595 8.6665 25.0203 8.6665 24.6667C8.6665 24.3131 8.52603 23.9739 8.27598 23.7239C8.02593 23.4738 7.68679 23.3334 7.33317 23.3334ZM27.9998 6.00004H24.6665C24.3129 6.00004 23.9737 6.14052 23.7237 6.39056C23.4736 6.64061 23.3332 6.97975 23.3332 7.33337C23.3332 7.687 23.4736 8.02613 23.7237 8.27618C23.9737 8.52623 24.3129 8.66671 24.6665 8.66671H26.6665V23.3334H15.5065L16.5598 22.28C16.6848 22.1561 16.784 22.0086 16.8517 21.8461C16.9194 21.6837 16.9542 21.5094 16.9542 21.3334C16.9542 21.1574 16.9194 20.9831 16.8517 20.8206C16.784 20.6581 16.6848 20.5107 16.5598 20.3867C16.31 20.1384 15.9721 19.999 15.6198 19.999C15.2676 19.999 14.9297 20.1384 14.6798 20.3867L11.3465 23.72C11.2215 23.844 11.1223 23.9915 11.0546 24.1539C10.987 24.3164 10.9521 24.4907 10.9521 24.6667C10.9521 24.8427 10.987 25.017 11.0546 25.1795C11.1223 25.342 11.2215 25.4894 11.3465 25.6134L14.6798 28.9467C14.9309 29.196 15.2707 29.3354 15.6246 29.3341C15.9784 29.3329 16.3172 29.1911 16.5665 28.94C16.8158 28.689 16.9552 28.3491 16.9539 27.9953C16.9527 27.6415 16.8109 27.3027 16.5598 27.0534L15.5065 26H27.9998C28.3535 26 28.6926 25.8596 28.9426 25.6095C29.1927 25.3595 29.3332 25.0203 29.3332 24.6667V7.33337C29.3332 6.97975 29.1927 6.64061 28.9426 6.39056C28.6926 6.14052 28.3535 6.00004 27.9998 6.00004Z" fill="#0061FF"/>
</svg>
