<svg width="32" height="32" viewBox="0 0 32 32" fill="none" xmlns="http://www.w3.org/2000/svg">
<path d="M28.0002 18.6667C27.6465 18.6667 27.3074 18.8072 27.0574 19.0573C26.8073 19.3073 26.6668 19.6465 26.6668 20.0001L26.6668 24.7867L20.5868 18.6667C20.4625 18.5377 20.3133 18.4351 20.1484 18.365C19.9834 18.2948 19.8061 18.2587 19.6268 18.2587C19.4476 18.2587 19.2702 18.2948 19.1053 18.365C18.9403 18.4351 18.7912 18.5377 18.6668 18.6667C18.4185 18.9166 18.2791 19.2545 18.2791 19.6067C18.2791 19.959 18.4185 20.2969 18.6668 20.5467L24.7868 26.6667L20.0002 26.6667C19.6465 26.6667 19.3074 26.8072 19.0574 27.0573C18.8073 27.3073 18.6668 27.6465 18.6668 28.0001C18.6668 28.3537 18.8073 28.6928 19.0574 28.9429C19.3074 29.1929 19.6465 29.3334 20.0002 29.3334L28.0002 29.3334C28.1744 29.3313 28.3465 29.2951 28.5068 29.2267C28.8326 29.0914 29.0915 28.8325 29.2268 28.5067C29.2952 28.3464 29.3314 28.1743 29.3335 28.0001L29.3335 20.0001C29.3335 19.6465 29.193 19.3073 28.943 19.0573C28.6929 18.8072 28.3538 18.6667 28.0002 18.6667ZM11.6002 13.3334C11.8552 13.5518 12.1833 13.666 12.5189 13.653C12.8545 13.6401 13.1728 13.501 13.4102 13.2635C13.6477 13.026 13.7868 12.7077 13.7998 12.3722C13.8127 12.0366 13.6986 11.7085 13.4802 11.4534L5.12016 3.08008C4.99557 2.95651 4.84782 2.85874 4.68537 2.79239C4.52292 2.72603 4.34897 2.6924 4.17349 2.69342C3.99802 2.6924 3.82407 2.72603 3.66162 2.79239C3.49917 2.85874 3.35142 2.95651 3.22683 3.08008C3.10186 3.20403 3.00267 3.3515 2.93497 3.51398C2.86728 3.67646 2.83243 3.85073 2.83243 4.02675C2.83243 4.20276 2.86728 4.37704 2.93497 4.53952C3.00267 4.702 3.10186 4.84946 3.22683 4.97342L11.6002 13.3334ZM20.0002 5.33341L24.7868 5.33341L3.0535 27.0534C2.80243 27.3045 2.66138 27.645 2.66138 28.0001C2.66138 28.3551 2.80243 28.6957 3.0535 28.9467C3.30457 29.1978 3.6451 29.3389 4.00016 29.3389C4.35523 29.3389 4.69576 29.1978 4.94683 28.9467L26.6668 7.21341L26.6668 12.0001C26.6668 12.3537 26.8073 12.6928 27.0574 12.9429C27.3074 13.1929 27.6465 13.3334 28.0002 13.3334C28.3538 13.3334 28.6929 13.1929 28.943 12.9429C29.193 12.6928 29.3335 12.3537 29.3335 12.0001L29.3335 4.00008C29.3314 3.82584 29.2951 3.65371 29.2268 3.49341C29.0915 3.16762 28.8326 2.90871 28.5068 2.77341C28.3465 2.70509 28.1744 2.66885 28.0002 2.66675L20.0002 2.66675C19.6465 2.66675 19.3074 2.80722 19.0574 3.05727C18.8073 3.30732 18.6668 3.64646 18.6668 4.00008C18.6668 4.3537 18.8073 4.69284 19.0574 4.94289C19.3074 5.19294 19.6465 5.33341 20.0002 5.33341Z" fill="#0061FF"/>
</svg>
